# xmcd
#
# Track frame offsets: 
#        187
#        18242
#        36250
#        50875
#        61505
#        72272
#        88002
#
# Disc length: 1534 seconds
#
# Revision: 4
# Processed by: cddbd v1.5.2PL0 Copyright (c) Steve Scherf et al.
# Submitted via: ExactAudioCopy v0.99pb5
#
DISCID=5705fc07
DTITLE=Ronnie Milsap - Collector's Series
DYEAR=1900
DGENRE=Country
TTITLE0=What A Difference You've Made In My Life
TTITLE1=Show Her
TTITLE2=Back On My Mind Again
TTITLE3=Pure Love
TTITLE4=Daydreams About Night Things
TTITLE5=Only One Love In My Life
TTITLE6=We're Here To Love
EXTD=
EXTT0=
EXTT1=
EXTT2=
EXTT3=
EXTT4=
EXTT5=
EXTT6=
PLAYORDER=
